<svg width="389" height="256" viewBox="0 0 389 256" fill="none" xmlns="http://www.w3.org/2000/svg">
<rect x="0.349609" width="387.771" height="255.473" rx="5.70251" fill="#E6ECEF"/>
<path d="M213.877 96.9429H174.642C171.521 96.9463 168.529 98.1605 166.322 100.319C164.116 102.478 162.875 105.405 162.871 108.458V146.84C162.875 149.892 164.116 152.819 166.322 154.978C168.529 157.137 171.521 158.351 174.642 158.354H213.877C216.997 158.351 219.989 157.137 222.196 154.978C224.403 152.819 225.644 149.892 225.647 146.84V108.458C225.644 105.405 224.403 102.478 222.196 100.319C219.989 98.1605 216.997 96.9463 213.877 96.9429ZM174.642 104.619H213.877C214.917 104.619 215.915 105.024 216.651 105.743C217.387 106.463 217.8 107.44 217.8 108.458V146.84C217.801 147.344 217.7 147.843 217.502 148.308C217.172 149.086 216.168 149.081 215.564 148.491L193.809 127.208C191.847 125.29 189.186 124.212 186.412 124.212C183.638 124.212 180.977 125.29 179.015 127.208C175.924 130.232 170.718 128.042 170.718 123.718V108.458C170.718 107.44 171.131 106.463 171.867 105.743C172.603 105.024 173.601 104.619 174.642 104.619Z" fill="#4285F4"/>
<path d="M205.205 125.368C209.767 125.368 213.465 121.75 213.465 117.288C213.465 112.825 209.767 109.207 205.205 109.207C200.643 109.207 196.945 112.825 196.945 117.288C196.945 121.75 200.643 125.368 205.205 125.368Z" fill="#4285F4"/>
</svg>
